<svg class="icon" width="200" height="186.69" viewBox="0 0 1097 1024" xmlns="http://www.w3.org/2000/svg">
    <path d="M1084.373 308.041L991.665 77.275C975.573 29.477 929.493.146 875.514 0H224.652c-54.674 0-97.17 29.074-112.567 74.971L12.391 310.455a49.335 49.335 0 0 0-1.426 5.559A217.234 217.234 0 0 0 115.377 575.78c29.366 15.725 63.744 23.625 102.473 23.625a216.759 216.759 0 0 0 166.034-77.532 216.613 216.613 0 0 0 165.23 77.13 215.99 215.99 0 0 0 164.352-77.313 216.137 216.137 0 0 0 166.436 77.166c39.497-.183 74.533-8.484 104.046-24.649a217.49 217.49 0 0 0 102.766-257.902 40.777 40.777 0 0 0-2.34-8.228zM890.362 531.127a142.007 142.007 0 0 1-121.71-68.133 65.06 65.06 0 0 0-10.898-17.188c-6.766-7.57-19.017-16.53-39.241-16.53-16.275 0-31.013 6.692-39.351 16.895a68.754 68.754 0 0 0-10.716 16.86 142.153 142.153 0 0 1-119.99 68.242 142.263 142.263 0 0 1-120.87-68.388c-1.828-3.767-4.9-10.094-9.69-15.47-19.237-22.894-62.245-21.724-78.995-1.756-6.18 6.766-9.399 13.532-11.483 18.176A143.104 143.104 0 0 1 206 531.712c-26.442 0-49.006-4.937-67.292-14.665A142.811 142.811 0 0 1 70.613 343.99a36.315 36.315 0 0 0 .951-3.584L173.086 100.57c2.085-6.144 8.375-24.832 39.936-24.832H886.01c12.946.768 35.291 3.072 43.227 26.405l95.013 236.544c.365 1.719.84 3.328 1.243 4.681a142.994 142.994 0 0 1-66.67 172.252c-18.505 10.166-41.618 15.36-68.461 15.506zm50.432 166.4l.073 229.266a22.309 22.309 0 0 1-22.236 22.236l-753.517.475a22.162 22.162 0 0 1-22.236-22.053l-.256-229.924c-.036-21.833-14.701-39.534-36.498-39.534-21.943 0-34.999 17.664-34.962 39.497l.292 225.39c-.036 55.771 42.387 101.12 98.268 101.12l744.411-.475c55.845-.11 98.194-45.605 98.194-101.376l-.11-224.622c0-21.87-13.092-39.534-34.925-39.534-21.87 0-36.498 17.664-36.498 39.497z"/>
</svg>
