<?xml version="1.0" standalone="no"?><!DOCTYPE svg PUBLIC "-//W3C//DTD SVG 1.1//EN" "http://www.w3.org/Graphics/SVG/1.1/DTD/svg11.dtd"><svg class="icon" width="200px" height="200.00px" viewBox="0 0 1024 1024" version="1.1" xmlns="http://www.w3.org/2000/svg"><path d="M847.2 296.9H176.8c-60.2 0-109.1 48.9-109.1 109.1v413.1c0 60.2 48.9 109.1 109.1 109.1h670.3c60.2 0 109.1-48.9 109.1-109.1V406c0.1-60.2-48.9-109.1-109-109.1z m46.7 522.2c0 25.8-21 46.8-46.8 46.8H176.8c-25.8 0-46.8-21-46.8-46.8V406c0-25.8 21-46.8 46.8-46.8h670.3c25.8 0 46.8 21 46.8 46.8v413.1z" fill="#285BA9" /><path d="M657.1 586.3c13.5 0 24.4-10.9 24.4-24.4s-11-24.4-24.4-24.4h-91.4l93.2-93.2c9.5-9.6 9.5-25 0-34.6-9.5-9.6-25-9.6-34.6 0l-111 111-111-111c-9.5-9.6-25-9.6-34.6 0-9.5 9.5-9.5 25 0 34.6l93.2 93.2h-94.1c-13.5 0-24.4 11-24.4 24.4s10.9 24.4 24.4 24.4h120.7v53.8H366.9c-13.5 0-24.4 10.9-24.4 24.4 0 13.5 10.9 24.4 24.4 24.4h120.7V804c0 13.5 10.9 24.4 24.4 24.4 13.5 0 24.4-10.9 24.4-24.4V689h120.7c13.5 0 24.4-10.9 24.4-24.4 0-13.5-11-24.4-24.4-24.4H536.4v-53.8h120.7v-0.1zM179.8 258.2h664.5c17.2 0 31.2-14 31.2-31.2s-14-31.2-31.2-31.2H179.8c-17.2 0-31.2 14-31.2 31.2s13.9 31.2 31.2 31.2zM262.6 158.1h498.8c17.2 0 31.2-14 31.2-31.2s-14-31.2-31.2-31.2H262.6c-17.2 0-31.2 14-31.2 31.2 0 17.3 14 31.2 31.2 31.2z" fill="#285BA9" /></svg>