<svg class="icon" width="200px" height="200.00px" viewBox="0 0 1024 1024" version="1.1" xmlns="http://www.w3.org/2000/svg">
    <path d="M406.016 12.288h-292.864c-52.736 0-95.744 43.008-95.744 95.744v292.864c0 52.736 43.008 95.744 95.744 95.744h292.864c52.736 0 95.744-43.008 95.744-95.744V108.032c0-52.736-43.008-95.744-95.744-95.744z m0 409.6h-292.864c-11.776 0-21.504-9.728-21.504-21.504V108.032c0-11.776 9.728-21.504 21.504-21.504h292.864c11.776 0 21.504 9.728 21.504 21.504v292.864c0 11.264-9.728 20.992-21.504 20.992zM910.848 527.872h-292.864c-52.736 0-95.744 43.008-95.744 95.744v292.864c0 52.736 43.008 95.744 95.744 95.744h292.864c52.736 0 95.744-43.008 95.744-95.744v-292.864c0-52.736-43.008-95.744-95.744-95.744z m20.992 388.608c0 11.776-9.728 21.504-21.504 21.504h-292.864c-11.776 0-21.504-9.728-21.504-21.504v-292.864c0-11.776 9.728-21.504 21.504-21.504h292.864c11.776 0 21.504 9.728 21.504 21.504v292.864zM898.048 203.264c-47.104-48.128-108.544-80.896-178.176-94.72l-0.512-48.64c0-26.624-31.744-40.96-52.224-23.552l-105.472 91.136c-14.848 12.8-14.336 35.84 0.512 48.128l107.52 89.088c20.48 16.896 51.712 2.048 51.712-24.576l-0.512-57.856c49.152 12.288 92.16 36.352 126.464 71.168 51.712 52.736 78.848 125.44 78.336 210.944 0 19.968 15.872 35.84 35.84 35.84s35.84-15.872 35.84-35.84c-0.512-102.912-35.328-195.584-99.328-261.12zM462.848 849.408l-105.984-90.624c-20.48-17.408-51.712-3.072-52.224 23.552l-0.512 48.128c-126.976-32.256-207.36-130.56-207.36-264.704 0-19.968-15.872-35.84-35.84-35.84s-35.84 15.872-35.84 35.84c0 173.568 110.592 303.104 278.528 337.92l-0.512 58.368c0 26.624 31.232 41.472 51.712 24.576l107.008-89.088c15.36-12.8 15.36-35.84 1.024-48.128z"/>
</svg>
