<?xml version="1.0" standalone="no"?><!DOCTYPE svg PUBLIC "-//W3C//DTD SVG 1.1//EN" "http://www.w3.org/Graphics/SVG/1.1/DTD/svg11.dtd"><svg class="icon" width="200px" height="200.00px" viewBox="0 0 1024 1024" version="1.1" xmlns="http://www.w3.org/2000/svg"><path d="M727.8 950.6H219c-84.3 0-153-68.6-153-153V288.9c0-84.3 68.6-153 153-153h292.3v90H219c-34.7 0-63 28.2-63 63v508.8c0 34.7 28.2 63 63 63h508.8c34.7 0 63-28.2 63-63V512.2h90v285.5c-0.1 84.3-68.7 152.9-153 152.9z"  /><path d="M793.3 400.3c-92.8 0-168.4-75.5-168.4-168.4 0-92.8 75.5-168.4 168.4-168.4S961.6 139.1 961.6 232c0 92.8-75.5 168.3-168.3 168.3z m0-246.7c-43.2 0-78.4 35.2-78.4 78.4s35.2 78.4 78.4 78.4 78.4-35.2 78.4-78.4-35.2-78.4-78.4-78.4z"  /></svg>