<svg class="icon" width="200px" height="194.12px" viewBox="0 0 1055 1024" version="1.1" xmlns="http://www.w3.org/2000/svg">
    <path d="M937.562644 1023.996244l-820.408781 0c-64.675292 0-117.153863-52.413475-117.153863-117.155115l0-556.630133c0-43.31507 23.800067-80.827841 58.874245-101.001314 0-0.132696-0.132696-0.19654-0.132696-0.330487-4.217464-15.624271 807.092912-248.877944 807.092912-248.877944 33.425499 0 44.765958 31.316141 42.457556 56.962678l0 176.026856 29.271879 0c64.675292 0 117.155115 52.478571 117.155115 117.153863L1054.719011 525.911121l0 234.436666 0 146.49209C1054.717759 971.582769 1002.237936 1023.996244 937.562644 1023.996244M844.674534 72.649541l-542.804762 160.407593 542.804762 0 0-167.918659L844.674534 72.649541zM988.957118 584.423583l-197.886564 0.161488 0 117.155115 197.886564-0.163992L988.957118 584.423583zM989.42656 765.620557 784.813836 765.620557c-31.973359 0-57.770118-25.799262-57.770118-57.772622l0.156481-129.306769c0-31.907011 25.734166-57.836466 57.770118-57.836466l204.612724 0-0.168999-166.516594c0-31.908263-25.801766-57.773873-57.772622-57.773873l-808.627673 0c-31.909515 0-57.773873 25.800514-57.773873 57.773873l0 548.68092c0 31.907011 25.864358 57.772622 57.773873 57.772622l808.627673 0c31.907011 0 57.772622-25.799262 57.772622-57.772622l0-144.400258L989.42656 765.620557z" fill="#525252"/>
</svg>
