<?xml version="1.0" standalone="no"?><!DOCTYPE svg PUBLIC "-//W3C//DTD SVG 1.1//EN" "http://www.w3.org/Graphics/SVG/1.1/DTD/svg11.dtd"><svg class="icon" width="200px" height="200.00px" viewBox="0 0 1024 1024" version="1.1" xmlns="http://www.w3.org/2000/svg"><path d="M768.594333 577.530239a222.754805 222.754805 0 0 0-78.252227 13.922175 398.942335 398.942335 0 0 0-120.018753-71.531176 278.923582 278.923582 0 1 0-281.804032 0A398.942335 398.942335 0 0 0 31.67919 867.015471a32.645101 32.645101 0 0 0 0 3.8406 31.924988 31.924988 0 0 0 63.849976 0 336.052508 336.052508 0 0 1 535.283639-245.798406 223.23488 223.23488 0 1 0 137.781528-48.007501zM214.587769 279.403657a215.55368 215.55368 0 1 1 215.553681 215.55368 215.55368 215.55368 0 0 1-215.553681-215.55368z m554.006564 681.226441a159.384904 159.384904 0 1 1 159.384904-160.345053 159.384904 159.384904 0 0 1-159.384904 159.384903z m0 0"  /><path d="M840.12551 733.554618a26.884201 26.884201 0 0 0-24.483826 16.32255l-42.246601 98.415378-45.127051-100.815753a27.364276 27.364276 0 0 0-48.007501 22.083451l51.848101 117.138303a45.607126 45.607126 0 0 0 83.533052 0l50.887951-117.138303a26.884201 26.884201 0 0 0-24.483825-37.445851z m0 0"  /></svg>