<?xml version="1.0" standalone="no"?><!DOCTYPE svg PUBLIC "-//W3C//DTD SVG 1.1//EN" "http://www.w3.org/Graphics/SVG/1.1/DTD/svg11.dtd"><svg class="icon" width="200px" height="200.00px" viewBox="0 0 1024 1024" version="1.1" xmlns="http://www.w3.org/2000/svg"><path d="M386.56 423.936a60.928 60.928 0 1 1-60.928-61.44 60.928 60.928 0 0 1 60.928 61.44" fill="#F5A623" /><path d="M743.424 926.208H660.48a86.016 86.016 0 0 1-82.944-64.512 512 512 0 0 1-56.32 0l-5.632 12.288a86.016 86.016 0 0 1-78.336 51.2H353.792a86.528 86.528 0 0 1-86.016-87.04v-58.368a385.024 385.024 0 0 1-132.096-156.672l-41.472-21.504A81.92 81.92 0 0 1 51.2 528.384v-102.4a81.92 81.92 0 0 1 79.872-81.92h11.264A363.52 363.52 0 0 1 202.24 256l-19.456-39.936a83.456 83.456 0 0 1 0-75.776A80.896 80.896 0 0 1 247.808 102.4h44.032a343.552 343.552 0 0 1 148.992 30.72 515.584 515.584 0 0 1 343.04 51.2 421.376 421.376 0 0 1 75.776 51.2A350.208 350.208 0 0 1 972.8 464.896a346.624 346.624 0 0 1-24.576 160.768 2121.728 2121.728 0 0 1-102.4 204.8l-3.072 5.632-23.552 43.52a86.016 86.016 0 0 1-75.264 45.568m-139.776-125.44a28.672 28.672 0 0 1 18.944 7.168 29.184 29.184 0 0 1 9.728 22.016v9.728a28.16 28.16 0 0 0 28.16 28.672h82.944a28.16 28.16 0 0 0 24.576-14.848l23.552-44.032 3.072-5.632a2078.208 2078.208 0 0 0 102.4-200.192 287.232 287.232 0 0 0 20.48-133.12A291.84 291.84 0 0 0 819.2 278.528a364.544 364.544 0 0 0-66.048-47.616 458.24 458.24 0 0 0-312.32-43.52 28.672 28.672 0 0 1-19.456-2.56A281.088 281.088 0 0 0 291.84 153.6h-38.912a23.552 23.552 0 0 0-18.432 12.288 24.576 24.576 0 0 0 0 22.016l28.672 62.976a29.184 29.184 0 0 1-7.168 34.304 307.2 307.2 0 0 0-70.144 102.4 28.672 28.672 0 0 1-26.624 17.408h-28.16a23.552 23.552 0 0 0-23.04 24.064v102.4a24.064 24.064 0 0 0 12.8 21.504l51.2 26.112a29.184 29.184 0 0 1 13.824 14.848 326.656 326.656 0 0 0 127.488 148.48 29.184 29.184 0 0 1 13.312 24.576v72.704a28.16 28.16 0 0 0 28.16 28.672h82.432a28.16 28.16 0 0 0 25.6-16.896L476.16 819.2a29.184 29.184 0 0 1 28.672-17.408 460.8 460.8 0 0 0 94.72 0h3.584" fill="#F5A623" /></svg>