<?xml version="1.0" standalone="no"?><!DOCTYPE svg PUBLIC "-//W3C//DTD SVG 1.1//EN" "http://www.w3.org/Graphics/SVG/1.1/DTD/svg11.dtd"><svg class="icon" width="200px" height="200.00px" viewBox="0 0 1024 1024" version="1.1" xmlns="http://www.w3.org/2000/svg"><path d="M876.8 147.2C774.4 51.2 646.4 0 512 0S249.6 51.2 147.2 147.2C51.2 243.2 0 377.6 0 512c0 102.4 25.6 198.4 83.2 281.6 12.8 19.2 32 19.2 51.2 12.8 19.2-12.8 19.2-32 12.8-51.2-51.2-76.8-76.8-160-76.8-243.2 0-243.2 198.4-441.6 441.6-441.6 243.2 0 441.6 198.4 441.6 441.6s-198.4 441.6-441.6 441.6c-83.2 0-160-19.2-230.4-64-19.2-12.8-38.4-6.4-51.2 12.8-6.4 19.2-6.4 38.4 12.8 44.8C326.4 998.4 416 1024 512 1024c134.4 0 262.4-51.2 364.8-147.2C972.8 774.4 1024 646.4 1024 512s-51.2-262.4-147.2-364.8z m-185.6 326.4c25.6-25.6 32-51.2 32-89.6 0-19.2 0-38.4-12.8-51.2-6.4-38.4-32-64-64-76.8-12.8-6.4-32-12.8-44.8-12.8-19.2 0-38.4-6.4-57.6 0H371.2c-25.6-6.4-38.4 0-51.2 12.8-6.4 6.4-12.8 25.6-12.8 44.8v396.8c0 19.2 6.4 38.4 12.8 44.8 6.4 12.8 25.6 19.2 38.4 19.2 12.8 0 25.6-6.4 38.4-12.8 6.4-12.8 12.8-25.6 12.8-51.2V531.2H448c19.2 0 32 0 44.8 6.4 12.8 6.4 25.6 12.8 38.4 25.6 12.8 12.8 25.6 32 38.4 57.6l44.8 70.4c12.8 19.2 19.2 32 25.6 38.4l19.2 19.2c6.4 6.4 19.2 6.4 32 6.4s19.2 0 25.6-6.4c6.4-6.4 12.8-6.4 19.2-12.8 6.4-6.4 6.4-12.8 6.4-19.2 0-6.4-6.4-19.2-12.8-38.4s-19.2-38.4-32-57.6c-12.8-19.2-25.6-44.8-44.8-64-19.2-12.8-38.4-25.6-57.6-32 44.8-12.8 76.8-25.6 96-51.2z m-83.2-44.8c-12.8 12.8-25.6 19.2-38.4 25.6-19.2 6.4-38.4 6.4-64 6.4H409.6V320h96c38.4 0 57.6 0 70.4 6.4 12.8 6.4 25.6 12.8 32 25.6 6.4 12.8 12.8 25.6 12.8 38.4 0 12.8-6.4 32-12.8 38.4z" fill="#333333" /></svg>