<svg class="icon" width="200" height="200" viewBox="0 0 1024 1024" xmlns="http://www.w3.org/2000/svg">
    <path d="M935.033 281.033c0-16.24-16.14-29.24-32.28-29.24H763.868C738.063 141.214 637.934 59.875 521.665 59.875h-19.379c-116.269 0-216.349 81.339-242.203 191.917H121.248c-19.378-3.237-32.33 9.714-32.33 29.24l-29.043 562.75v3.239c6.476 68.339 61.373 117.103 125.934 117.103H841.38c64.61 0 119.508-52.052 122.745-117.103v-3.239l-29.092-562.749zm-96.89 618.039H185.809c-29.043 0-54.897-22.763-58.134-55.289l22.616-530.178h103.367v136.58c-19.428 9.763-32.33 32.526-32.33 55.29 0 35.764 29.091 65.101 64.61 65.101s64.561-29.337 64.561-65.101c0-22.763-12.902-45.526-32.281-55.29V307.082c0-104.102 83.988-185.393 184.068-185.393h19.379c103.366 0 184.117 84.577 184.117 185.393v146.342c-19.377 9.812-32.331 32.575-32.331 55.338 0 35.764 29.094 65.052 64.611 65.052s64.561-29.288 64.561-65.052c0-22.763-12.901-45.526-32.28-55.338V313.605h100.129l25.805 530.178c-.001 32.527-25.805 55.289-58.134 55.289zm-229.3-650.517H415.109c-19.377 0-32.28 12.952-32.28 32.478 0 19.524 12.903 32.573 32.28 32.573h193.734c19.426 0 32.328-13.049 32.328-32.573 0-19.526-12.902-32.478-32.328-32.478z"/>
</svg>
