<svg xmlns="http://www.w3.org/2000/svg" class="icon" width="200px" height="200.00px" viewBox="0 0 1024 1024" version="1.1">
    <path d="M596.4 538.5H430.5c-159.2 0-293.8 114.8-320.5 272.8-6.2 36.6 4.6 73.7 28 101.6 24.3 28 59.3 44.9 96.3 44.9H789c37.5 0 72.9-16.4 97.1-45.3 24.3-28.8 34.2-66.3 27.6-103.3v-5c-28.1-153.3-161.9-265.7-317.3-265.7z m253 342.4c-13.2 17.3-35 27.2-59.3 27.2H236.7c-23.9 0-44-9.4-58.1-27.2-14.4-15.6-21-37.5-17.7-61.3 21-134.2 135-231.7 270.8-231.7h164.6c133.4 0 246.5 94.7 269.2 225.5l1.2 4.6c2.9 23.4-2.9 46-17.3 62.9zM512.8 66.2c-122.6 0-222.2 99.6-222.2 222.2s99.6 222.2 222.2 222.2S735 411 735 288.4 635.4 66.2 512.8 66.2z m0 395.4c-95.5 0-173.7-77.7-173.7-173.7s77.7-173.7 173.7-173.7S686.5 192 686.5 288c-0.8 95.9-78.3 173.6-173.7 173.6z" fill="#525252"/>
</svg>
