<?xml version="1.0" standalone="no"?>
<!DOCTYPE svg PUBLIC "-//W3C//DTDSVG1.1//EN" "http://www.w3.org/Graphics/SVG/1.1/DTD/svg11.dtd">
<svg class="icon" width="200px" height="199.61px" viewBox="0 0 1026 1024" version="1.1" xmlns="http://www.w3.org/2000/svg"><path d="M628.725078 270.991859c77.616999 0 140.768544 58.34114 140.768544 130.599929a125.378672 125.378672 0 0 1-18.197368 64.212916C733.62957 494.73561 705.297825 516.11709 671.060067 526.285705a78.472942 78.472942 0 0 1-22.477089 3.749034 26.756808 26.756808 0 1 1 0-53.513616 14.893425 14.893425 0 0 0 5.888895-1.07849c23.007774-6.41958 41.205142-19.806543 51.356637-37.473226a67.927713 67.927713 0 0 0 10.185733-36.377619c0-42.283632-39.082401-77.034957-86.707123-77.034956a96.790143 96.790143 0 0 0-47.111156 12.291355c-25.147634 14.465453-40.143772 38.551716-40.143771 64.777839v224.257318c0 45.484862-25.147634 87.306284-66.900581 110.776268a147.051173 147.051173 0 0 1-73.320159 19.275858c-77.59988 0-140.751425-58.34114-140.751426-130.59993a125.327315 125.327315 0 0 1 18.197369-64.212916c17.615327-28.948025 45.98131-50.346624 80.219068-60.515238 9.637929-2.687664 16.057509-3.749035 22.477089-3.749035a26.756808 26.756808 0 1 1 0 53.513617 14.927663 14.927663 0 0 0-5.888895 1.078489c-23.007774 6.950265-41.205142 20.337229-51.356638 37.456108a68.167377 68.167377 0 0 0-10.168614 36.394737c0 42.283632 39.065282 77.034957 87.306284 77.034957a96.601836 96.601836 0 0 0 47.094037-12.308474c25.164752-14.448334 40.143772-38.534597 40.143772-64.76072V401.591788c0-45.501981 25.164752-87.306284 66.90058-110.793386a139.090894 139.090894 0 0 1 72.789475-19.806543zM84.413194 511.85449c0 236.565792 191.611615 428.177408 428.177407 428.177407S940.768009 748.403163 940.768009 511.85449 749.156394 83.659963 512.590601 83.659963 84.413194 275.271578 84.413194 511.85449z m-53.513617 0c0-265.993146 215.697879-481.691024 481.691024-481.691025S994.281626 245.844225 994.281626 511.85449s-215.697879 481.691024-481.691025 481.691024S30.899577 777.847635 30.899577 511.85449z m0 0"/></svg>
