<?xml version="1.0" standalone="no"?>
<!DOCTYPE svg PUBLIC "-//W3C//DTDSVG1.1//EN" "http://www.w3.org/Graphics/SVG/1.1/DTD/svg11.dtd">
<svg class="icon" width="200px" height="200.00px" viewBox="0 0 1024 1024" version="1.1" xmlns="http://www.w3.org/2000/svg"><path d="M862.696989 276.324674v-27.072719C862.696989 168.902472 797.281798 103.550562 716.823011 103.550562H250.546337c-80.75218 0-146.397483 65.35191-146.397483 145.701393v525.49609C104.148854 855.097528 165.767191 920.449438 241.502921 920.449438h542.127461c75.73573 0 137.417348-65.35191 137.417348-145.701393V395.125933c0-49.071461-23.166562-92.367101-58.350741-118.801259z m0 498.423371c0 48.139506-35.420045 87.350652-79.009079 87.350652H241.502921c-43.589034 0-79.003326-39.211146-79.003325-87.350652V249.251955c0-48.139506 39.504539-87.350652 88.052494-87.350652h466.276674c48.248809 0 87.517483 39.211146 87.517483 87.350652v2.387416c-6.822831-1.110292-13.593888-2.214831-20.658337-2.214832H308.373573a29.184 29.184 0 0 0-29.172494 29.178248 29.184 29.184 0 0 0 29.172494 29.172494h475.314337c43.589034 0 79.009079 39.211146 79.009079 87.350652v379.622112z m0 0"/><path d="M658.47227 628.701483c16.107865 0 29.178247-13.070382 29.178247-29.178247a29.184 29.184 0 0 0-29.178247-29.172494H541.770787V548.933034a87.615281 87.615281 0 0 0 25.381393-14.002337l109.521977-87.638293a29.195506 29.195506 0 0 0 4.550472-41.02328c-9.975371-12.546876-28.298067-14.468315-41.017528-4.550472L530.685124 489.299416a28.971146 28.971146 0 0 1-36.179416 0L384.989483 401.661124a29.299056 29.299056 0 0 0-41.017528 4.550472 29.241528 29.241528 0 0 0 4.550472 41.017528L458.038652 534.873169a86.38418 86.38418 0 0 0 25.387146 14.065618v21.417707H366.718562a29.184 29.184 0 0 0-29.172495 29.172495c0 16.107865 13.070382 29.178247 29.172495 29.178247h116.701483v58.350742H366.718562a29.184 29.184 0 0 0-29.172495 29.178247 29.184 29.184 0 0 0 29.172495 29.172494h116.701483v29.178247a29.184 29.184 0 0 0 29.172494 29.172495c16.107865 0 29.178247-13.070382 29.178248-29.172495v-29.178247h116.69573c16.107865 0 29.178247-13.070382 29.178247-29.172494 0-16.107865-13.070382-29.178247-29.178247-29.178247H541.770787v-58.350742h116.701483z m0 0"/></svg>
