
          <svg
            class="icon"
            width="200"
            height="184.5"
            viewBox="0 0 1110 1024"
            xmlns="http://www.w3.org/2000/svg"
          >
            <path
              d="M1110.078 473.507a88.03 88.03 0 0 0-44.634-76.044l-86.79-48.767a103.32 103.32 0 0 1-38.435-38.022l-16.531-28.93a98.775 98.775 0 0 1-14.465-47.941V124.696A88.03 88.03 0 0 0 865 49.892L801.77 12.696a90.509 90.509 0 0 0-92.575 0L626.537 63.53a106.627 106.627 0 0 1-55.793 15.705h-26.45a107.04 107.04 0 0 1-54.14-14.465L399.23 13.523a90.922 90.922 0 0 0-91.335-.413l-62.82 36.369a87.616 87.616 0 0 0-43.807 77.697l2.48 106.627a97.948 97.948 0 0 1-13.226 51.247l-14.878 26.037a102.494 102.494 0 0 1-41.328 38.848L45.874 398.29A87.616 87.616 0 0 0 0 475.16v75.218a87.616 87.616 0 0 0 44.221 75.63l92.989 53.727a103.734 103.734 0 0 1 37.609 37.609l15.704 27.277a99.188 99.188 0 0 1 13.226 51.247v101.667a87.616 87.616 0 0 0 44.22 77.698l63.646 36.369a90.509 90.509 0 0 0 45.048 11.985 91.749 91.749 0 0 0 44.222-11.572l91.335-50.834a106.627 106.627 0 0 1 52.074-13.638h30.17a107.454 107.454 0 0 1 53.726 14.465l84.723 48.767a90.922 90.922 0 0 0 90.51 0l63.645-37.196a88.03 88.03 0 0 0 42.155-74.39V794.215a99.188 99.188 0 0 1 15.291-49.594l17.771-30.583a102.494 102.494 0 0 1 35.956-36.782l89.682-53.727a88.03 88.03 0 0 0 41.329-75.218zM250.036 711.145l-15.705-27.277a170.686 170.686 0 0 0-62.819-63.232l-92.988-52.9a19.424 19.424 0 0 1-9.919-16.945v-75.218a19.838 19.838 0 0 1 10.332-16.944l89.682-49.18a170.273 170.273 0 0 0 66.126-64.473l13.225-26.45a165.313 165.313 0 0 0 22.317-86.79l-.413-107.04a19.424 19.424 0 0 1 9.919-16.944l62.819-36.37a21.077 21.077 0 0 1 11.158-2.892 21.904 21.904 0 0 1 11.159 3.306l89.682 52.9a175.645 175.645 0 0 0 88.856 23.97h26.864a175.645 175.645 0 0 0 90.922-23.97l82.656-50.834a21.904 21.904 0 0 1 22.731 0l63.232 36.37a19.838 19.838 0 0 1 9.92 16.53v109.934a165.313 165.313 0 0 0 22.316 82.656l16.532 28.93a171.1 171.1 0 0 0 64.059 63.233l90.509 43.808a19.424 19.424 0 0 1 10.332 16.944v78.11a19.424 19.424 0 0 1-9.92 16.532L942.7 620.636a171.512 171.512 0 0 0-59.926 61.166L865 712.385a165.313 165.313 0 0 0-22.317 82.656v104.974a19.424 19.424 0 0 1-9.919 16.531l-63.645 37.196a22.317 22.317 0 0 1-25.21-2.48l-82.657-47.94a175.645 175.645 0 0 0-88.03-23.558h-30.17a175.645 175.645 0 0 0-85.549 22.318l-91.749 49.18a22.317 22.317 0 0 1-21.904 0l-63.232-36.369a19.424 19.424 0 0 1-9.919-16.944V796.28a165.313 165.313 0 0 0-20.664-85.136z"
              fill="#040000"
            />
            <path
              d="M555.04 776.443a264.088 264.088 0 0 0 131.423-35.542 38.435 38.435 0 1 0-38.849-66.125 185.15 185.15 0 0 1-92.575 25.623 188.044 188.044 0 1 1 188.87-188.043 182.671 182.671 0 0 1-8.679 53.726 38.435 38.435 0 0 0-2.066 19.425 38.022 38.022 0 0 0 15.292 25.21 37.195 37.195 0 0 0 28.516 7.026 35.542 35.542 0 0 0 30.583-25.21 257.062 257.062 0 0 0 12.812-80.59A264.088 264.088 0 1 0 556.279 776.03z"
              fill="#040000"
            />
          </svg>
